<!DOCTYPE svg PUBLIC "-//W3C//DTD SVG 1.1//EN" "http://www.w3.org/Graphics/SVG/1.1/DTD/svg11.dtd">
<!-- Uploaded to: SVG Repo, www.svgrepo.com, Transformed by: SVG Repo Mixer Tools -->
<svg height="800px" width="800px" version="1.1" id="Layer_1" xmlns="http://www.w3.org/2000/svg" xmlns:xlink="http://www.w3.org/1999/xlink" viewBox="-87.04 -87.04 686.08 686.08" xml:space="preserve" fill="#000000" stroke="#000000" transform="rotate(0)matrix(1, 0, 0, 1, 0, 0)" stroke-width="0.0051199800000000005">
<g id="SVGRepo_bgCarrier" stroke-width="0"/>
<g id="SVGRepo_tracerCarrier" stroke-linecap="round" stroke-linejoin="round"/>
<g id="SVGRepo_iconCarrier"> <g> <path style="fill:#2BA5B1;" d="M7.599,165.777v180.448c67.5,0,102.174-90.224,102.174-90.224S75.1,165.777,7.599,165.777z"/> <path style="fill:#2BA5B1;" d="M386.033,318.825v56.303C478.666,341.83,504.075,256,504.075,256s-25.408-85.829-118.042-119.128 v161.686"/> </g> <g> <path style="fill:#53180F;" d="M511.361,253.843c-0.274-0.925-6.915-22.946-25.345-49.278 c-16.992-24.277-47.685-56.969-97.413-74.844l-10.17-3.656V248.4h-25.334V123.876h-15.198v124.523h-25.334V123.876h-15.198v124.523 h-25.334V127.33h-15.198v121.069h-25.334V138.303h-15.198v110.096h-25.334v-88.782h-15.198v88.782h-25.334v-51.144h-15.198v51.144 H114.82c-3.571-8.079-11.802-25.009-24.766-42.103c-23.873-31.48-52.386-48.119-82.454-48.119H0v195.646h7.599 c30.068,0,58.581-16.639,82.454-48.12c12.965-17.095,21.196-34.027,24.767-42.105h20.417v51.143h15.198v-51.143h25.334v88.782 h15.198v-88.782h25.334v110.096h15.198V263.599h25.334v121.069h15.198V263.599h25.334v124.523h15.198V263.599h25.334v124.523 h15.198V263.599h25.334v34.96h15.198V148.004c32.158,13.647,58.9,35.409,79.602,64.805c13.957,19.82,20.75,37.257,22.833,43.191 c-4.439,12.618-30.258,77.237-102.436,107.987v-45.163h-15.198v67.11l10.17-3.656c49.728-17.876,80.421-50.568,97.413-74.844 c18.429-26.33,25.071-48.353,25.345-49.278l0.638-2.157L511.361,253.843z M15.198,338.19v-74.593h63.658v-15.198H15.198v-74.589 c50.515,5.824,80.317,68.3,86.343,82.194C95.525,269.922,65.813,332.384,15.198,338.19z"/> <polygon style="fill:#53180F;" points="425.109,282.015 440.377,266.746 455.645,282.015 466.392,271.269 451.123,255.999 466.392,240.73 455.645,229.984 440.377,245.252 425.109,229.984 414.363,240.73 429.631,255.999 414.363,271.269 "/> </g> </g>
</svg>